<svg xmlns="http://www.w3.org/2000/svg" version="1.1" xmlns:xlink="http://www.w3.org/1999/xlink" viewBox="0 0 200 200" width="200" height="200"><metadata><rdf:RDF xmlns:rdf="http://www.w3.org/1999/02/22-rdf-syntax-ns#" xmlns:dc="http://purl.org/dc/elements/1.1/"><rdf:Description><dc:creator>RealFaviconGenerator</dc:creator><dc:source>https://realfavicongenerator.net</dc:source></rdf:Description></rdf:RDF></metadata><rect width="200" height="200" fill="url('#gradient')"></rect><defs><linearGradient id="gradient" gradientTransform="rotate(203 0.5 0.5)"><stop offset="0%" stop-color="#7dabaa"></stop><stop offset="100%" stop-color="#f5e8ce"></stop></linearGradient></defs><g><g fill="#2c1f37" transform="matrix(0.8646784045993532,0,0,0.8646784045993532,5.460125616570831,104.64441692723759)" stroke="#15374d" stroke-width="0.2"><path d="M8.41-3.78L8.41-3.78Q8.41-4.53 7.88-4.95Q7.34-5.37 6.01-5.82Q4.67-6.27 3.82-6.69L3.82-6.69Q1.05-8.05 1.05-10.42L1.05-10.42Q1.05-11.60 1.74-12.50Q2.43-13.41 3.69-13.91Q4.95-14.41 6.52-14.41L6.52-14.41Q8.06-14.41 9.27-13.87Q10.49-13.32 11.16-12.31Q11.84-11.30 11.84-10L11.84-10L8.42-10Q8.42-10.87 7.89-11.35Q7.35-11.83 6.45-11.83L6.45-11.83Q5.53-11.83 5.00-11.42Q4.46-11.02 4.46-10.39L4.46-10.39Q4.46-9.84 5.05-9.40Q5.63-8.96 7.11-8.48Q8.58-8.01 9.53-7.46L9.53-7.46Q11.84-6.13 11.84-3.80L11.84-3.80Q11.84-1.93 10.43-0.87Q9.02 0.20 6.57 0.20L6.57 0.20Q4.84 0.20 3.44-0.42Q2.04-1.04 1.33-2.12Q0.63-3.20 0.63-4.61L0.63-4.61L4.06-4.61Q4.06-3.47 4.65-2.92Q5.24-2.38 6.57-2.38L6.57-2.38Q7.42-2.38 7.92-2.75Q8.41-3.12 8.41-3.78ZM13.04-4.82L13.03-5.38Q13.03-6.96 13.64-8.20Q14.26-9.43 15.41-10.10Q16.56-10.76 18.12-10.76L18.12-10.76Q20.49-10.76 21.86-9.29Q23.22-7.82 23.22-5.29L23.22-5.29L23.22-5.18Q23.22-2.71 21.85-1.25Q20.48 0.20 18.13 0.20L18.13 0.20Q15.88 0.20 14.51-1.16Q13.14-2.51 13.04-4.82L13.04-4.82ZM16.33-5.77L16.32-5.18Q16.32-3.71 16.78-3.03Q17.24-2.34 18.13-2.34L18.13-2.34Q19.89-2.34 19.93-5.05L19.93-5.05L19.93-5.38Q19.93-8.22 18.12-8.22L18.12-8.22Q16.46-8.22 16.33-5.77L16.33-5.77ZM29.14-2.34L29.14-2.34Q29.83-2.34 30.21-2.72Q30.60-3.10 30.59-3.77L30.59-3.77L33.67-3.77Q33.67-2.03 32.43-0.92Q31.18 0.20 29.22 0.20L29.22 0.20Q26.91 0.20 25.59-1.25Q24.26-2.70 24.26-5.25L24.26-5.25L24.26-5.39Q24.26-6.99 24.85-8.22Q25.44-9.44 26.55-10.10Q27.67-10.76 29.19-10.76L29.19-10.76Q31.25-10.76 32.46-9.62Q33.67-8.48 33.67-6.52L33.67-6.52L30.59-6.52Q30.59-7.34 30.19-7.78Q29.79-8.22 29.11-8.22L29.11-8.22Q27.83-8.22 27.62-6.59L27.62-6.59Q27.55-6.07 27.55-5.17L27.55-5.17Q27.55-3.57 27.93-2.96Q28.31-2.34 29.14-2.34ZM38.54-10.57L38.54 0L35.23 0L35.23-10.57L38.54-10.57ZM35.04-13.29L35.04-13.29Q35.04-13.99 35.55-14.44Q36.05-14.89 36.87-14.89Q37.68-14.89 38.18-14.44Q38.69-13.99 38.69-13.29Q38.69-12.59 38.18-12.14Q37.68-11.69 36.87-11.69Q36.05-11.69 35.55-12.14Q35.04-12.59 35.04-13.29ZM45.67 0.20L45.67 0.20Q43.24 0.20 41.74-1.25Q40.23-2.71 40.23-5.03L40.23-5.03L40.23-5.30Q40.23-6.92 40.83-8.16Q41.44-9.40 42.59-10.08Q43.74-10.76 45.32-10.76L45.32-10.76Q47.55-10.76 48.84-9.38Q50.13-8.00 50.13-5.53L50.13-5.53L50.13-4.25L43.58-4.25Q43.76-3.36 44.36-2.85Q44.95-2.34 45.90-2.34L45.90-2.34Q47.46-2.34 48.34-3.44L48.34-3.44L49.84-1.66Q49.23-0.81 48.10-0.31Q46.97 0.20 45.67 0.20ZM45.30-8.22L45.30-8.22Q43.86-8.22 43.58-6.31L43.58-6.31L46.90-6.31L46.90-6.56Q46.92-7.35 46.50-7.79Q46.08-8.22 45.30-8.22ZM51.99-13.19L55.28-13.19L55.28-10.57L57.02-10.57L57.02-8.28L55.28-8.28L55.28-3.45Q55.28-2.85 55.50-2.62Q55.71-2.38 56.35-2.38L56.35-2.38Q56.84-2.38 57.17-2.44L57.17-2.44L57.17-0.09Q56.28 0.20 55.31 0.20L55.31 0.20Q53.61 0.20 52.80-0.61Q51.99-1.41 51.99-3.04L51.99-3.04L51.99-8.28L50.64-8.28L50.64-10.57L51.99-10.57L51.99-13.19ZM60.87-10.57L62.54-4.61L64.30-10.57L67.82-10.57L63.52 1.77L63.33 2.22Q62.41 4.27 60.09 4.27L60.09 4.27Q59.44 4.27 58.73 4.07L58.73 4.07L58.73 1.72L59.16 1.72Q59.85 1.72 60.22 1.52Q60.59 1.32 60.76 0.80L60.76 0.80L61.03 0.10L57.35-10.57L60.87-10.57ZM82.63-8.57L82.63-6.03L77.24-6.03L77.24-2.64L83.60-2.64L83.60 0L73.81 0L73.81-14.22L83.62-14.22L83.62-11.57L77.24-11.57L77.24-8.57L82.63-8.57ZM87.65-10.57L89.13-7.66L90.66-10.57L94.08-10.57L91.30-5.42L94.22 0L90.78 0L89.12-3.13L87.49 0L84.03 0L86.96-5.42L84.19-10.57L87.65-10.57ZM104.95-5.36L104.95-5.21Q104.95-2.74 103.84-1.27Q102.73 0.20 100.85 0.20L100.85 0.20Q99.39 0.20 98.46-0.87L98.46-0.87L98.46 4.06L95.17 4.06L95.17-10.57L98.24-10.57L98.34-9.59Q99.29-10.76 100.83-10.76L100.83-10.76Q102.78-10.76 103.87-9.32Q104.95-7.88 104.95-5.36L104.95-5.36ZM101.66-5.06L101.66-5.41Q101.66-8.22 100.02-8.22L100.02-8.22Q98.85-8.22 98.46-7.38L98.46-7.38L98.46-3.22Q98.89-2.34 100.04-2.34L100.04-2.34Q101.61-2.34 101.66-5.06L101.66-5.06ZM111.51 0.20L111.51 0.20Q109.08 0.20 107.58-1.25Q106.07-2.71 106.07-5.03L106.07-5.03L106.07-5.30Q106.07-6.92 106.67-8.16Q107.28-9.40 108.43-10.08Q109.58-10.76 111.16-10.76L111.16-10.76Q113.39-10.76 114.68-9.38Q115.97-8.00 115.97-5.53L115.97-5.53L115.97-4.25L109.42-4.25Q109.60-3.36 110.20-2.85Q110.79-2.34 111.74-2.34L111.74-2.34Q113.30-2.34 114.18-3.44L114.18-3.44L115.68-1.66Q115.07-0.81 113.94-0.31Q112.81 0.20 111.51 0.20ZM111.14-8.22L111.14-8.22Q109.70-8.22 109.42-6.31L109.42-6.31L112.74-6.31L112.74-6.56Q112.76-7.35 112.34-7.79Q111.92-8.22 111.14-8.22ZM117.23-10.57L120.31-10.57L120.42-9.33Q121.51-10.76 123.44-10.76L123.44-10.76Q125.09-10.76 125.90-9.78Q126.72-8.79 126.75-6.81L126.75-6.81L126.75 0L123.45 0L123.45-6.67Q123.45-7.47 123.13-7.85Q122.80-8.22 121.95-8.22L121.95-8.22Q120.99-8.22 120.52-7.46L120.52-7.46L120.52 0L117.23 0L117.23-10.57ZM134.10-2.97L134.10-2.97Q134.10-3.39 133.66-3.64Q133.22-3.90 131.99-4.17Q130.76-4.44 129.96-4.89Q129.16-5.33 128.74-5.97Q128.32-6.60 128.32-7.42L128.32-7.42Q128.32-8.88 129.52-9.82Q130.72-10.76 132.67-10.76L132.67-10.76Q134.76-10.76 136.03-9.81Q137.29-8.87 137.29-7.32L137.29-7.32L133.99-7.32Q133.99-8.59 132.66-8.59L132.66-8.59Q132.14-8.59 131.79-8.31Q131.44-8.02 131.44-7.59L131.44-7.59Q131.44-7.15 131.87-6.88Q132.29-6.60 133.24-6.43Q134.18-6.25 134.89-6.01L134.89-6.01Q137.28-5.19 137.28-3.07L137.28-3.07Q137.28-1.62 135.99-0.71Q134.71 0.20 132.67 0.20L132.67 0.20Q131.31 0.20 130.24-0.29Q129.18-0.78 128.58-1.62Q127.99-2.46 127.99-3.39L127.99-3.39L131.06-3.39Q131.08-2.66 131.55-2.32Q132.02-1.98 132.75-1.98L132.75-1.98Q133.43-1.98 133.76-2.26Q134.10-2.53 134.10-2.97ZM143.93 0.20L143.93 0.20Q141.49 0.20 139.99-1.25Q138.49-2.71 138.49-5.03L138.49-5.03L138.49-5.30Q138.49-6.92 139.09-8.16Q139.69-9.40 140.84-10.08Q141.99-10.76 143.57-10.76L143.57-10.76Q145.80-10.76 147.09-9.38Q148.38-8.00 148.38-5.53L148.38-5.53L148.38-4.25L141.84-4.25Q142.01-3.36 142.61-2.85Q143.20-2.34 144.15-2.34L144.15-2.34Q145.71-2.34 146.59-3.44L146.59-3.44L148.10-1.66Q147.48-0.81 146.35-0.31Q145.22 0.20 143.93 0.20ZM143.55-8.22L143.55-8.22Q142.11-8.22 141.84-6.31L141.84-6.31L145.16-6.31L145.16-6.56Q145.18-7.35 144.76-7.79Q144.34-8.22 143.55-8.22ZM161.02-14.22L161.02-11.57L156.75-11.57L156.75 0L153.32 0L153.32-11.57L149.13-11.57L149.13-14.22L161.02-14.22ZM168.13-10.64L168.07-7.59L166.98-7.67Q165.43-7.67 164.99-6.69L164.99-6.69L164.99 0L161.70 0L161.70-10.57L164.79-10.57L164.89-9.21Q165.72-10.76 167.21-10.76L167.21-10.76Q167.73-10.76 168.13-10.64L168.13-10.64ZM178.20 0L174.91 0Q174.74-0.32 174.60-0.95L174.60-0.95Q173.69 0.20 172.06 0.20L172.06 0.20Q170.57 0.20 169.52-0.71Q168.48-1.61 168.48-2.98L168.48-2.98Q168.48-4.70 169.75-5.58Q171.02-6.46 173.44-6.46L173.44-6.46L174.45-6.46L174.45-7.01Q174.45-8.47 173.19-8.47L173.19-8.47Q172.02-8.47 172.02-7.31L172.02-7.31L168.73-7.31Q168.73-8.85 170.03-9.80Q171.34-10.76 173.36-10.76Q175.38-10.76 176.55-9.78Q177.72-8.79 177.75-7.07L177.75-7.07L177.75-2.39Q177.77-0.94 178.20-0.17L178.20-0.17L178.20 0ZM172.85-2.15L172.85-2.15Q173.47-2.15 173.87-2.41Q174.28-2.68 174.45-3.01L174.45-3.01L174.45-4.70L173.50-4.70Q171.78-4.70 171.78-3.15L171.78-3.15Q171.78-2.71 172.08-2.43Q172.38-2.15 172.85-2.15ZM184.04-2.34L184.04-2.34Q184.74-2.34 185.12-2.72Q185.50-3.10 185.49-3.77L185.49-3.77L188.57-3.77Q188.57-2.03 187.33-0.92Q186.08 0.20 184.12 0.20L184.12 0.20Q181.82 0.20 180.49-1.25Q179.16-2.70 179.16-5.25L179.16-5.25L179.16-5.39Q179.16-6.99 179.75-8.22Q180.34-9.44 181.46-10.10Q182.57-10.76 184.09-10.76L184.09-10.76Q186.15-10.76 187.36-9.62Q188.57-8.48 188.57-6.52L188.57-6.52L185.49-6.52Q185.49-7.34 185.09-7.78Q184.69-8.22 184.01-8.22L184.01-8.22Q182.73-8.22 182.52-6.59L182.52-6.59Q182.45-6.07 182.45-5.17L182.45-5.17Q182.45-3.57 182.83-2.96Q183.21-2.34 184.04-2.34ZM196.51 0L194.21-3.94L193.28-3.01L193.28 0L189.99 0L189.99-15.01L193.28-15.01L193.28-7.04L193.61-7.48L196.09-10.57L200.04-10.57L196.34-6.22L200.28 0L196.51 0ZM205.82 0.20L205.82 0.20Q203.39 0.20 201.88-1.25Q200.38-2.71 200.38-5.03L200.38-5.03L200.38-5.30Q200.38-6.92 200.98-8.16Q201.58-9.40 202.73-10.08Q203.89-10.76 205.47-10.76L205.47-10.76Q207.70-10.76 208.98-9.38Q210.27-8.00 210.27-5.53L210.27-5.53L210.27-4.25L203.73-4.25Q203.91-3.36 204.50-2.85Q205.10-2.34 206.04-2.34L206.04-2.34Q207.61-2.34 208.49-3.44L208.49-3.44L209.99-1.66Q209.38-0.81 208.25-0.31Q207.12 0.20 205.82 0.20ZM205.45-8.22L205.45-8.22Q204.00-8.22 203.73-6.31L203.73-6.31L207.05-6.31L207.05-6.56Q207.07-7.35 206.65-7.79Q206.23-8.22 205.45-8.22ZM218.05-10.64L217.99-7.59L216.90-7.67Q215.35-7.67 214.91-6.69L214.91-6.69L214.91 0L211.62 0L211.62-10.57L214.71-10.57L214.81-9.21Q215.64-10.76 217.13-10.76L217.13-10.76Q217.66-10.76 218.05-10.64L218.05-10.64Z"></path></g></g></svg>